<svg width="12" height="9" viewBox="0 0 12 9" fill="none" xmlns="http://www.w3.org/2000/svg">
<path d="M11.3535 3.70652L7.8535 0.206518C7.7592 0.115439 7.6329 0.0650418 7.5018 0.066181C7.3707 0.0673202 7.24529 0.119905 7.15259 0.212609C7.05989 0.305313 7.0073 0.430719 7.00616 0.561817C7.00502 0.692916 7.05542 0.819217 7.1465 0.913518L9.793 3.56002H1C0.867392 3.56002 0.740215 3.6127 0.646447 3.70646C0.552678 3.80023 0.5 3.92741 0.5 4.06002C0.5 4.19263 0.552678 4.3198 0.646447 4.41357C0.740215 4.50734 0.867392 4.56002 1 4.56002H9.793L7.1465 7.20652C7.09874 7.25264 7.06065 7.30781 7.03445 7.36882C7.00824 7.42982 6.99445 7.49543 6.99387 7.56182C6.9933 7.62821 7.00595 7.69405 7.03109 7.75549C7.05623 7.81694 7.09336 7.87277 7.1403 7.91972C7.18725 7.96666 7.24307 8.00379 7.30452 8.02893C7.36597 8.05407 7.43181 8.06672 7.4982 8.06614C7.56459 8.06557 7.6302 8.05177 7.6912 8.02557C7.7522 7.99936 7.80738 7.96127 7.8535 7.91352L11.3535 4.41352C11.4472 4.31975 11.4999 4.1926 11.4999 4.06002C11.4999 3.92744 11.4472 3.80028 11.3535 3.70652Z" fill="black"/>
</svg>
