<svg width="16" height="16" viewBox="0 0 16 16" fill="none" xmlns="http://www.w3.org/2000/svg">
    <path d="M7.23541 7.94667L0.153408 15.0287C0.0589576 15.1231 0.00588282 15.2512 0.00585938 15.3847C0.00583594 15.5183 0.0588657 15.6463 0.153283 15.7408C0.2477 15.8352 0.37577 15.8883 0.509319 15.8883C0.642869 15.8884 0.770958 15.8353 0.865408 15.7409L8.00066 8.60567L15.1359 15.7409C15.2344 15.8394 15.3632 15.8884 15.4919 15.8884C15.5915 15.8885 15.6889 15.8589 15.7718 15.8036C15.8546 15.7483 15.9192 15.6696 15.9573 15.5775C15.9954 15.4855 16.0054 15.3842 15.9859 15.2865C15.9664 15.1888 15.9184 15.0991 15.8479 15.0287L8.76616 7.94667L15.8527 0.859673C15.9471 0.765256 16.0002 0.637186 16.0002 0.503637C16.0002 0.370088 15.9472 0.241999 15.8528 0.147548C15.7584 0.0530982 15.6303 2.34498e-05 15.4967 7.76869e-09C15.3632 -2.34343e-05 15.2351 0.0530063 15.1407 0.147423L8.00091 7.28767L0.860408 0.147673C0.765079 0.0576235 0.638393 0.0082963 0.507272 0.0101742C0.37615 0.0120521 0.250928 0.0649871 0.158218 0.15773C0.0655075 0.250473 0.0126165 0.375713 0.0107846 0.506836C0.00895274 0.637958 0.0583244 0.764627 0.148408 0.859923L7.23541 7.94667Z"
          fill="black"/>
</svg>
