<svg width="82" height="82" viewBox="0 0 82 82" fill="none" xmlns="http://www.w3.org/2000/svg">
<path d="M41 27.6667C41 23.2222 44.1733 18.7778 50.5244 18.7778C53.8921 18.7778 57.1218 17.44 59.5031 15.0587C61.8844 12.6774 63.2222 9.44766 63.2222 6.08V3.22222M23.2222 27.6667V25.4444C23.2222 21.9082 24.627 18.5168 27.1275 16.0164C29.6279 13.5159 33.0193 12.1111 36.5556 12.1111C38.913 12.1111 41.174 11.1746 42.8409 9.50762C44.5079 7.84063 45.4444 5.5797 45.4444 3.22222V1M63.2222 39.2222V54.3333C63.2222 61.4058 60.4127 68.1886 55.4117 73.1895C50.4108 78.1905 43.628 81 36.5556 81H27.6667C20.5942 81 13.8115 78.1905 8.81049 73.1895C3.80952 68.1886 1 61.4058 1 54.3333V39.2222C1 38.515 1.28095 37.8367 1.78105 37.3366C2.28115 36.8365 2.95942 36.5556 3.66667 36.5556H60.5556C61.2628 36.5556 61.9411 36.8365 62.4412 37.3366C62.9413 37.8367 63.2222 38.515 63.2222 39.2222Z" stroke="black" stroke-width="1.5" stroke-linecap="round" stroke-linejoin="round"/>
<path d="M58.7773 36.5554H69.8885C72.8353 36.5554 75.6615 37.7261 77.7452 39.8098C79.8289 41.8935 80.9996 44.7197 80.9996 47.6665C80.9996 50.6134 79.8289 53.4395 77.7452 55.5233C75.6615 57.607 72.8353 58.7776 69.8885 58.7776H63.2218" stroke="black" stroke-width="1.5" stroke-linecap="round" stroke-linejoin="round"/>
</svg>
