<svg width="80" height="80" viewBox="0 0 80 80" fill="none" xmlns="http://www.w3.org/2000/svg">
<path d="M17.778 18.2222H53.3335V21.7777H17.778V18.2222ZM17.778 35.9999H35.7469V39.5555H17.778V35.9999ZM51.9513 27.1111H17.778V30.6666H48.398L51.9513 27.1111ZM28.4313 64.6044C29.0288 65.2895 29.7871 65.8154 30.6381 66.135C31.4891 66.4546 32.4061 66.5579 33.3069 66.4355H50.6491C51.0617 66.4355 51.4573 66.2716 51.749 65.9799C52.0408 65.6882 52.2047 65.2925 52.2047 64.8799C52.2047 64.4674 52.0408 64.0717 51.749 63.78C51.4573 63.4883 51.0617 63.3244 50.6491 63.3244H33.3069C31.2824 63.2888 31.6424 61.5311 31.9269 60.9866C32.2977 60.3476 32.5867 59.6645 32.7869 58.9533C32.9197 58.3811 32.8571 57.7808 32.609 57.2483C32.3609 56.7159 31.9416 56.2818 31.418 56.0155C30.5768 55.6365 29.6345 55.5436 28.7355 55.7511C27.8365 55.9586 27.0302 56.4551 26.4402 57.1644C25.6758 57.9533 24.6135 59.16 23.5958 60.3333C24.2247 57.8688 25.0402 54.7066 25.8402 51.6222C26.0695 50.9194 26.0238 50.1558 25.7125 49.4853C25.4012 48.8148 24.8473 48.2872 24.1624 48.0088C23.404 47.7486 22.5751 47.7858 21.843 48.1129C21.111 48.4399 20.5302 49.0325 20.218 49.7711C19.258 51.6177 11.658 64.3533 11.5824 64.4822C11.4777 64.6576 11.4085 64.8519 11.3788 65.054C11.3491 65.2561 11.3596 65.4621 11.4095 65.6602C11.5103 66.0603 11.766 66.4039 12.1202 66.6155C12.4744 66.8271 12.8982 66.8893 13.2983 66.7884C13.6983 66.6876 14.042 66.4319 14.2535 66.0777C14.538 65.5999 20.6047 55.4377 22.518 52.0444C21.078 57.5999 19.4913 63.7822 19.398 64.3377C19.2929 64.7462 19.3245 65.1778 19.4878 65.5666C19.6511 65.9555 19.9372 66.2801 20.3024 66.4911C20.7092 66.6928 21.1716 66.7534 21.6166 66.6632C22.0616 66.5731 22.464 66.3374 22.7602 65.9933C23.0402 65.74 23.5647 65.1377 24.8869 63.6022C26.1188 62.1533 27.3806 60.73 28.6713 59.3333C29.1558 58.8222 29.4491 59.0488 29.1647 59.5511C28.6083 60.2542 28.2474 61.0918 28.1186 61.9791C27.9899 62.8665 28.0977 63.7721 28.4313 64.6044Z" fill="black"/>
<path d="M62.2221 48.2111V71.1111H8.88878V8.8889H62.2221V19.9845L65.1777 17.0289C65.6326 16.5802 66.1314 16.1782 66.6666 15.8289V6.66668C66.6666 6.07731 66.4324 5.51208 66.0157 5.09533C65.5989 4.67858 65.0337 4.44446 64.4443 4.44446H6.66656C6.07719 4.44446 5.51196 4.67858 5.09521 5.09533C4.67846 5.51208 4.44434 6.07731 4.44434 6.66668V73.3334C4.44434 73.9227 4.67846 74.488 5.09521 74.9047C5.51196 75.3214 6.07719 75.5556 6.66656 75.5556H64.4443C65.0337 75.5556 65.5989 75.3214 66.0157 74.9047C66.4324 74.488 66.6666 73.9227 66.6666 73.3334V47.6156C65.3035 48.3378 63.7272 48.5491 62.2221 48.2111Z" fill="black"/>
<path d="M75.8397 26.3578L74.6775 25.1956C75.2715 24.4106 75.5722 23.4426 75.5275 22.4592C75.4829 21.4759 75.0957 20.5391 74.433 19.8111C73.5728 19.053 72.448 18.6654 71.3033 18.7329C70.1587 18.8003 69.0871 19.3173 68.3219 20.1711L40.4886 48L38.6286 54.9823C38.5991 55.0736 38.5956 55.1713 38.6182 55.2646C38.6409 55.3579 38.689 55.443 38.7571 55.5107C38.8252 55.5783 38.9107 55.6258 39.0041 55.6478C39.0975 55.6699 39.1952 55.6656 39.2864 55.6356L46.2441 53.7534L72.2264 27.7711L73.3241 28.8711C73.4008 28.9477 73.4616 29.0386 73.5031 29.1387C73.5446 29.2388 73.566 29.3461 73.566 29.4545C73.566 29.5628 73.5446 29.6701 73.5031 29.7702C73.4616 29.8703 73.4008 29.9612 73.3241 30.0378L62.3975 40.9645C62.0642 41.2981 61.8771 41.7504 61.8773 42.2219C61.8775 42.6935 62.065 43.1456 62.3986 43.4789C62.7322 43.8122 63.1845 43.9993 63.656 43.9991C64.1276 43.9989 64.5797 43.8114 64.913 43.4778L75.8397 32.5511C76.6609 31.7294 77.1223 30.6152 77.1223 29.4534C77.1223 28.2916 76.6609 27.1773 75.8397 26.3556" fill="black"/>
</svg>
