<svg width="72" height="80" viewBox="0 0 72 80" fill="none" xmlns="http://www.w3.org/2000/svg">
<path d="M65 15C62.2766 17.6065 59.0369 19.613 55.49 20.89C51.75 21.55 41.4 16.75 36.3 21.65C35.45 22.5 34.4 23.35 33.3 24.2C30.9 23.15 27.2 21.55 24.5 20C21.8 18.45 15 15 15 15L0 32.5C0 32.5 3.7 37.5 6 40.8C7.5 43 9.35 46.35 10.55 48.6L8.85 50.6C8.44289 51.4087 8.29642 52.3237 8.43073 53.2191C8.56503 54.1145 8.97353 54.9463 9.6 55.6C10.3231 56.1421 11.2029 56.4343 12.1067 56.4325C13.0104 56.4307 13.8891 56.135 14.61 55.59C14.3427 55.903 14.1404 56.2661 14.0149 56.6581C13.8894 57.0501 13.8432 57.4632 13.879 57.8732C13.9149 58.2833 14.032 58.6821 14.2236 59.0464C14.4152 59.4106 14.6774 59.7331 14.995 59.995C15.7585 60.4409 16.6272 60.6751 17.5114 60.6733C18.3956 60.6716 19.2633 60.434 20.025 59.985C19.4537 60.6971 19.1411 61.582 19.1384 62.4949C19.1357 63.4078 19.443 64.2945 20.01 65.01C20.7471 65.2652 21.5331 65.3465 22.3068 65.2476C23.0805 65.1487 23.8208 64.8723 24.47 64.44C24.1466 65.2055 24.0628 66.0511 24.2297 66.8651C24.3966 67.6792 24.8064 68.4236 25.405 69C26.2505 69.3757 27.1776 69.5306 28.0994 69.4501C29.0211 69.3697 29.9073 69.0565 30.675 68.54L33.255 66.205C35.615 68.555 38.87 70.01 42.465 70.01L42.77 70.005C43.9547 69.9039 45.0897 69.4824 46.0532 68.7857C47.0168 68.089 47.7727 67.1434 48.24 66.05C48.97 66.33 49.8 66.52 50.68 66.52C51.86 66.52 52.955 66.18 53.88 65.595C56.805 63.66 56.105 62.16 56.105 62.16C57.1451 62.6077 58.3004 62.7139 59.4047 62.4632C60.5089 62.2125 61.5052 61.6179 62.25 60.765C63.024 59.9732 63.5121 58.946 63.637 57.8459C63.762 56.7457 63.5167 55.6352 62.94 54.69C62.9716 54.7089 63.0083 54.7176 63.045 54.715C65.15 54.715 66.98 53.555 67.935 51.845C68.405 50.6296 68.5638 49.3161 68.397 48.0238C68.2302 46.7314 67.7431 45.5012 66.98 44.445L66.995 44.47C71.095 43.67 70.945 41.62 72.945 38.62C74.8387 36.1718 77.195 34.1196 79.88 32.58L65 15ZM64.75 50.3C62.55 52.5 60.85 51.55 57.1 48.7C53.35 45.85 45.9 40.5 45.9 40.5C46.205 42.025 46.91 43.35 47.905 44.405C49.5 46.2 54.25 50.3 56.5 52.4C57.9 53.7 61.5 56.3 59.4 58.3C57.3 60.3 55.65 58.3 52.2 55.5C48.75 52.7 41.05 45.8 41.05 45.8C41.0076 46.4614 41.106 47.1243 41.3387 47.7449C41.5714 48.3654 41.9331 48.9296 42.4 49.4C43.25 50.4 48 55 50 57.1C52 59.2 53.75 60.45 52.05 62.1C50.35 63.75 46.9 61.15 45 59.2C42.05 56.35 36.2 51.05 36.2 51.05L36.195 51.315C36.195 52.735 36.685 54.035 37.51 55.065C38.95 56.955 41.75 59.405 43.45 61.305C45.15 63.205 46.15 64.805 43.45 66.305C40.75 67.805 36.75 64.105 35 62.305V62.295C35.0004 61.8012 34.8229 61.3237 34.5 60.95C33.9019 60.396 33.164 60.0156 32.3657 59.85C31.5675 59.6844 30.7391 59.7397 29.97 60.01C30.2865 59.7267 30.5401 59.3803 30.7147 58.9931C30.8893 58.6059 30.981 58.1864 30.9838 57.7617C30.9866 57.3369 30.9006 56.9163 30.7311 56.5268C30.5617 56.1373 30.3127 55.7875 30 55.5C29.3437 55.0027 28.5426 54.734 27.7192 54.7349C26.8957 54.7358 26.0952 55.0063 25.44 55.505C25.7713 55.1885 26.0271 54.8015 26.1883 54.3726C26.3495 53.9437 26.412 53.484 26.3712 53.0277C26.3303 52.5713 26.1872 52.13 25.9524 51.7366C25.7176 51.3431 25.3972 51.0076 25.015 50.755C24.1199 50.1926 23.0696 49.9283 22.0149 50.0002C20.9603 50.0721 19.9555 50.4764 19.145 51.155C19.6867 50.4985 19.9538 49.658 19.8904 48.8092C19.8271 47.9604 19.4382 47.1689 18.805 46.6C18.0181 45.8675 17.0153 45.4094 15.9464 45.2941C14.8776 45.1787 13.8001 45.4123 12.875 45.96L9.55 40.345C7.25 36.695 4.55 32.895 4.55 32.895L15.95 19.045C15.95 19.045 20 21.545 23.35 23.445C25 24.395 27.85 25.645 30 26.645C26.6 29.195 23.75 31.645 24.6 33.345C26.1148 34.4324 27.925 35.0321 29.7894 35.0643C31.6538 35.0965 33.4836 34.5595 35.035 33.525C37.0242 32.2026 39.3614 31.5013 41.75 31.51C43.485 31.51 45.135 31.87 46.63 32.525C49.4 34.395 54.5 38.995 59.15 41.895C65 46.145 66.15 48.895 64.75 50.295V50.3Z" fill="black"/>
</svg>
