<svg width="50" height="50" viewBox="0 0 50 50" fill="none" xmlns="http://www.w3.org/2000/svg">
<circle cx="25" cy="25" r="25" fill="#B7DDE0"/>
<path d="M25.9737 14.6878C26.0387 14.6385 26.0964 14.5804 26.1452 14.5151H29.1342C29.3596 14.5029 29.5855 14.5029 29.8109 14.5151H29.8552C30.5194 14.5132 31.1755 14.6599 31.7756 14.9444C32.8718 15.3745 33.82 16.1128 34.5056 17.0701C35.0245 17.795 35.3775 18.6253 35.5397 19.502C35.7018 20.3786 35.669 21.2802 35.4436 22.1428L31.6157 18.3663C31.4519 18.2047 31.231 18.1142 31.0009 18.1143H25.4301C25.2513 18.1215 25.0791 18.1834 24.9366 18.2916L22.7386 19.9576C22.6205 20.0476 22.4858 20.1133 22.3422 20.1512C22.1987 20.1891 22.0491 20.1984 21.902 20.1784C21.7548 20.1585 21.6131 20.1098 21.4848 20.035C21.3565 19.9603 21.2442 19.8611 21.1542 19.7429C21.0648 19.6267 20.9994 19.4938 20.9616 19.3521C20.9238 19.2104 20.9144 19.0626 20.9341 18.9173C20.9537 18.7719 21.0019 18.6319 21.076 18.5053C21.15 18.3787 21.2484 18.268 21.3654 18.1796L25.9737 14.6878ZM20.2151 27.6074L20.1987 27.6226L19.0624 28.7519L19.0472 28.7659C18.8482 28.9552 18.5834 29.0595 18.3088 29.0569C18.0342 29.0543 17.7714 28.9449 17.5761 28.7519C17.4785 28.6552 17.401 28.5401 17.3481 28.4132C17.2953 28.2864 17.268 28.1503 17.268 28.0129C17.268 27.8754 17.2953 27.7394 17.3481 27.6125C17.401 27.4857 17.4785 27.3705 17.5761 27.2738L18.7124 26.1444C18.9103 25.9485 19.1776 25.8385 19.4562 25.8385C19.7347 25.8385 20.002 25.9485 20.1999 26.1444C20.3945 26.3372 20.5051 26.599 20.508 26.8728C20.5108 27.1467 20.4056 27.4107 20.2151 27.6074ZM19.8756 29.5884C19.6851 29.7852 19.5798 30.0492 19.5827 30.3231C19.5855 30.5969 19.6962 30.8587 19.8907 31.0514C20.3014 31.4598 20.9676 31.4598 21.3782 31.0514L22.5146 29.9221C22.6247 29.8129 22.7091 29.6804 22.7614 29.5344C22.8138 29.3884 22.8328 29.2325 22.8172 29.0781C22.8015 28.9238 22.7515 28.7749 22.6709 28.6424C22.5903 28.5098 22.4811 28.397 22.3512 28.3121C22.1519 28.181 21.9141 28.1211 21.6764 28.1423C21.4387 28.1635 21.2152 28.2644 21.0422 28.4288L21.0271 28.4451L19.8907 29.5733L19.8756 29.5884ZM17.4162 24.3081C17.5139 24.4049 17.5913 24.52 17.6442 24.6468C17.6971 24.7737 17.7243 24.9098 17.7243 25.0472C17.7243 25.1846 17.6971 25.3207 17.6442 25.4475C17.5913 25.5744 17.5139 25.6895 17.4162 25.7863L16.2799 26.9156C16.082 27.1116 15.8147 27.2216 15.5362 27.2216C15.2576 27.2216 14.9903 27.1116 14.7924 26.9156C14.6948 26.8189 14.6173 26.7037 14.5645 26.5769C14.5116 26.45 14.4844 26.314 14.4844 26.1765C14.4844 26.0391 14.5116 25.903 14.5645 25.7762C14.6173 25.6493 14.6948 25.5342 14.7924 25.4374L15.9287 24.3081C16.1267 24.1121 16.394 24.0022 16.6725 24.0022C16.951 24.0022 17.2183 24.1121 17.4162 24.3081ZM24.8281 30.7446C24.9257 30.8414 25.0032 30.9565 25.056 31.0833C25.1089 31.2102 25.1361 31.3463 25.1361 31.4837C25.1361 31.6211 25.1089 31.7572 25.056 31.884C25.0032 32.0109 24.9257 32.126 24.8281 32.2228L23.6917 33.3521C23.4938 33.5481 23.2265 33.6581 22.948 33.6581C22.6695 33.6581 22.4022 33.5481 22.2042 33.3521C22.0493 33.1985 21.9465 33 21.9105 32.7848C21.8745 32.5696 21.9071 32.3485 22.0036 32.1528L22.0047 32.1504C22.0556 32.048 22.123 31.9545 22.2042 31.8739L23.3406 30.7446C23.5385 30.5486 23.8058 30.4387 24.0843 30.4387C24.3629 30.4387 24.6302 30.5486 24.8281 30.7446ZM17.2342 16.6349C18.0089 15.8653 18.9482 15.2818 19.9814 14.9283C21.0146 14.5748 22.1145 14.4607 23.1982 14.5944L20.3096 16.7843C20.0087 17.0119 19.7558 17.2968 19.5655 17.6226C19.3752 17.9484 19.2512 18.3086 19.2006 18.6825C19.1501 19.0564 19.174 19.4366 19.2711 19.8012C19.3681 20.1658 19.5362 20.5076 19.7659 20.8069C20.2296 21.4114 20.9135 21.8079 21.6685 21.9099C22.4234 22.012 23.188 21.8114 23.7956 21.3518L25.7602 19.8643H30.6427L34.7342 23.9009C34.7474 23.9172 34.7614 23.9328 34.7762 23.9476L36.1179 25.2893C36.4197 25.5953 36.5927 26.0054 36.6011 26.4351C36.6096 26.8648 36.4529 27.2814 36.1634 27.5991C35.8738 27.9167 35.4735 28.1112 35.0448 28.1425C34.6162 28.1738 34.1918 28.0395 33.8592 27.7673L33.7472 27.6553C33.7256 27.6332 33.7021 27.613 33.6772 27.5946L32.4021 26.3206C32.3483 26.2649 32.2839 26.2205 32.2127 26.1899C32.1416 26.1593 32.065 26.1432 31.9876 26.1426C31.9101 26.1419 31.8333 26.1566 31.7616 26.186C31.6899 26.2153 31.6248 26.2586 31.57 26.3134C31.5152 26.3682 31.4719 26.4333 31.4426 26.505C31.4133 26.5767 31.3985 26.6535 31.3992 26.7309C31.3999 26.8084 31.4159 26.8849 31.4465 26.9561C31.4771 27.0273 31.5215 27.0916 31.5772 27.1454L32.9189 28.4871C32.9679 28.5349 33.0169 28.5816 33.0682 28.6259L33.1196 28.6773C33.2319 28.7872 33.3214 28.9184 33.3827 29.0631C33.444 29.2079 33.476 29.3633 33.4769 29.5205C33.4777 29.6777 33.4474 29.8335 33.3876 29.9789C33.3278 30.1243 33.2398 30.2564 33.1287 30.3675C33.0175 30.4787 32.8854 30.5667 32.74 30.6265C32.5946 30.6862 32.4388 30.7166 32.2817 30.7157C32.1245 30.7149 31.969 30.6829 31.8242 30.6215C31.6795 30.5602 31.5484 30.4708 31.4384 30.3584L31.2401 30.1613C31.1578 30.0792 31.0529 30.0236 30.9388 30.0016C30.8247 29.9795 30.7067 29.9921 30.5997 30.0376C30.4928 30.0831 30.4019 30.1595 30.3387 30.2569C30.2755 30.3544 30.2428 30.4686 30.2449 30.5848C30.2431 30.6637 30.2573 30.7421 30.2868 30.8154C30.3163 30.8886 30.3604 30.955 30.4164 31.0106L30.6766 31.2708C30.7838 31.3717 30.8696 31.4932 30.9291 31.6279C30.9885 31.7627 31.0202 31.908 31.0224 32.0552C31.0247 32.2025 30.9973 32.3486 30.942 32.4851C30.8866 32.6216 30.8045 32.7456 30.7003 32.8497C30.5962 32.9538 30.4722 33.036 30.3358 33.0913C30.1993 33.1466 30.0531 33.174 29.9058 33.1718C29.7586 33.1696 29.6133 33.1378 29.4786 33.0784C29.3438 33.019 29.2224 32.9332 29.1214 32.8259H29.1202L29.1062 32.8108L28.8612 32.5658C28.8073 32.5112 28.7431 32.4679 28.6723 32.4383C28.6015 32.4087 28.5256 32.3935 28.4488 32.3935C28.3721 32.3935 28.2962 32.4087 28.2254 32.4383C28.1546 32.4679 28.0903 32.5112 28.0364 32.5658C27.9271 32.6752 27.8656 32.8235 27.8656 32.9782C27.8656 33.1329 27.9271 33.2812 28.0364 33.3906L28.2907 33.6461C28.3955 33.7495 28.4788 33.8726 28.536 34.0082C28.5931 34.1438 28.623 34.2893 28.624 34.4365C28.6249 34.5837 28.5968 34.7296 28.5413 34.8659C28.4859 35.0022 28.4041 35.1263 28.3007 35.231C28.1972 35.3357 28.0742 35.4191 27.9386 35.4762C27.803 35.5334 27.6574 35.5633 27.5103 35.5642C27.3631 35.5652 27.2172 35.5371 27.0808 35.4816C26.9445 35.4261 26.8205 35.3444 26.7157 35.2409L25.0462 33.6543L25.6587 33.0453C25.8651 32.8409 26.0288 32.5977 26.1406 32.3297C26.2524 32.0616 26.3099 31.7741 26.3099 31.4837C26.3099 31.1933 26.2524 30.9058 26.1406 30.6377C26.0288 30.3697 25.8651 30.1265 25.6587 29.9221C25.4405 29.7053 25.1796 29.5362 24.8927 29.4253C24.6057 29.3145 24.2989 29.2644 23.9916 29.2781C24.0051 28.972 23.9544 28.6664 23.8427 28.3811C23.7309 28.0958 23.5607 27.837 23.3429 27.6214C23.1248 27.4048 22.8642 27.2357 22.5774 27.1248C22.2907 27.014 21.984 26.9638 21.6769 26.9774C21.6904 26.6715 21.6396 26.3661 21.5279 26.081C21.4161 25.7959 21.2459 25.5373 21.0282 25.3219C20.7509 25.0469 20.4063 24.8495 20.0288 24.7494C19.6513 24.6493 19.2541 24.65 18.8769 24.7514C18.8121 24.2714 18.5902 23.8263 18.2457 23.4856C17.8619 23.1052 17.3532 22.8768 16.8138 22.843C16.2745 22.8091 15.7412 22.9719 15.3127 23.3013C15.0372 22.1185 15.0691 20.8849 15.4055 19.7179C15.7419 18.551 16.3714 17.4896 17.2342 16.6349Z" fill="black"/>
</svg>
