<svg width="50" height="50" viewBox="0 0 50 50" fill="none" xmlns="http://www.w3.org/2000/svg">
    <circle cx="25" cy="25" r="25" fill="#13322B"/>
    <path d="M25.9742 14.6878C26.0392 14.6385 26.0969 14.5804 26.1457 14.5151H29.1347C29.3601 14.5029 29.586 14.5029 29.8114 14.5151H29.8557C30.5199 14.5132 31.176 14.6599 31.7761 14.9444C32.8723 15.3745 33.8205 16.1128 34.5061 17.0701C35.025 17.795 35.378 18.6253 35.5401 19.502C35.7022 20.3786 35.6694 21.2802 35.4441 22.1428L31.6162 18.3663C31.4524 18.2047 31.2315 18.1142 31.0014 18.1143H25.4306C25.2518 18.1215 25.0796 18.1834 24.9371 18.2916L22.7391 19.9576C22.6209 20.0476 22.4863 20.1133 22.3427 20.1512C22.1992 20.1891 22.0496 20.1984 21.9024 20.1784C21.7553 20.1585 21.6136 20.1098 21.4853 20.035C21.357 19.9603 21.2447 19.8611 21.1547 19.7429C21.0653 19.6267 20.9999 19.4938 20.9621 19.3521C20.9243 19.2104 20.9149 19.0626 20.9346 18.9173C20.9542 18.7719 21.0024 18.6319 21.0764 18.5053C21.1505 18.3787 21.2489 18.268 21.3659 18.1796L25.9742 14.6878ZM20.2156 27.6074L20.1992 27.6226L19.0629 28.7519L19.0477 28.7659C18.8487 28.9552 18.5839 29.0595 18.3093 29.0569C18.0347 29.0543 17.7719 28.9449 17.5766 28.7519C17.479 28.6552 17.4015 28.5401 17.3486 28.4132C17.2958 28.2864 17.2685 28.1503 17.2685 28.0129C17.2685 27.8754 17.2958 27.7394 17.3486 27.6125C17.4015 27.4857 17.479 27.3705 17.5766 27.2738L18.7129 26.1444C18.9108 25.9485 19.1781 25.8385 19.4567 25.8385C19.7352 25.8385 20.0025 25.9485 20.2004 26.1444C20.3949 26.3372 20.5056 26.599 20.5085 26.8728C20.5113 27.1467 20.4061 27.4107 20.2156 27.6074ZM19.8761 29.5884C19.6856 29.7852 19.5803 30.0492 19.5832 30.3231C19.586 30.5969 19.6967 30.8587 19.8912 31.0514C20.3019 31.4598 20.9681 31.4598 21.3787 31.0514L22.5151 29.9221C22.6252 29.8129 22.7096 29.6804 22.7619 29.5344C22.8143 29.3884 22.8333 29.2325 22.8177 29.0781C22.802 28.9238 22.752 28.7749 22.6714 28.6424C22.5908 28.5098 22.4816 28.397 22.3517 28.3121C22.1524 28.181 21.9146 28.1211 21.6769 28.1423C21.4392 28.1635 21.2157 28.2644 21.0427 28.4288L21.0276 28.4451L19.8912 29.5733L19.8761 29.5884ZM17.4167 24.3081C17.5143 24.4049 17.5918 24.52 17.6447 24.6468C17.6976 24.7737 17.7248 24.9098 17.7248 25.0472C17.7248 25.1846 17.6976 25.3207 17.6447 25.4475C17.5918 25.5744 17.5143 25.6895 17.4167 25.7863L16.2804 26.9156C16.0825 27.1116 15.8152 27.2216 15.5367 27.2216C15.2581 27.2216 14.9908 27.1116 14.7929 26.9156C14.6953 26.8189 14.6178 26.7037 14.565 26.5769C14.5121 26.45 14.4849 26.314 14.4849 26.1765C14.4849 26.0391 14.5121 25.903 14.565 25.7762C14.6178 25.6493 14.6953 25.5342 14.7929 25.4374L15.9292 24.3081C16.1272 24.1121 16.3944 24.0022 16.673 24.0022C16.9515 24.0022 17.2188 24.1121 17.4167 24.3081ZM24.8286 30.7446C24.9262 30.8414 25.0036 30.9565 25.0565 31.0833C25.1094 31.2102 25.1366 31.3463 25.1366 31.4837C25.1366 31.6211 25.1094 31.7572 25.0565 31.884C25.0036 32.0109 24.9262 32.126 24.8286 32.2228L23.6922 33.3521C23.4943 33.5481 23.227 33.6581 22.9485 33.6581C22.6699 33.6581 22.4027 33.5481 22.2047 33.3521C22.0498 33.1985 21.947 33 21.911 32.7848C21.875 32.5696 21.9076 32.3485 22.0041 32.1528L22.0052 32.1504C22.0561 32.048 22.1235 31.9545 22.2047 31.8739L23.3411 30.7446C23.539 30.5486 23.8063 30.4387 24.0848 30.4387C24.3634 30.4387 24.6306 30.5486 24.8286 30.7446ZM17.2347 16.6349C18.0094 15.8653 18.9487 15.2818 19.9819 14.9283C21.015 14.5748 22.115 14.4607 23.1987 14.5944L20.3101 16.7843C20.0092 17.0119 19.7563 17.2968 19.566 17.6226C19.3757 17.9484 19.2517 18.3086 19.2011 18.6825C19.1506 19.0564 19.1745 19.4366 19.2715 19.8012C19.3686 20.1658 19.5367 20.5076 19.7664 20.8069C20.2301 21.4114 20.914 21.8079 21.6689 21.9099C22.4239 22.012 23.1885 21.8114 23.7961 21.3518L25.7607 19.8643H30.6432L34.7347 23.9009C34.7479 23.9172 34.7619 23.9328 34.7767 23.9476L36.1184 25.2893C36.4202 25.5953 36.5932 26.0054 36.6016 26.4351C36.6101 26.8648 36.4534 27.2814 36.1639 27.5991C35.8743 27.9167 35.474 28.1112 35.0453 28.1425C34.6167 28.1738 34.1923 28.0395 33.8597 27.7673L33.7477 27.6553C33.726 27.6332 33.7026 27.613 33.6777 27.5946L32.4026 26.3206C32.3488 26.2649 32.2844 26.2205 32.2132 26.1899C32.1421 26.1593 32.0655 26.1432 31.9881 26.1426C31.9106 26.1419 31.8338 26.1566 31.7621 26.186C31.6904 26.2153 31.6253 26.2586 31.5705 26.3134C31.5157 26.3682 31.4724 26.4333 31.4431 26.505C31.4138 26.5767 31.399 26.6535 31.3997 26.7309C31.4003 26.8084 31.4164 26.8849 31.447 26.9561C31.4776 27.0273 31.522 27.0916 31.5777 27.1454L32.9194 28.4871C32.9684 28.5349 33.0174 28.5816 33.0687 28.6259L33.1201 28.6773C33.2324 28.7872 33.3218 28.9184 33.3832 29.0631C33.4445 29.2079 33.4765 29.3633 33.4774 29.5205C33.4782 29.6777 33.4479 29.8335 33.3881 29.9789C33.3283 30.1243 33.2403 30.2564 33.1292 30.3675C33.018 30.4787 32.8859 30.5667 32.7405 30.6265C32.5951 30.6862 32.4393 30.7166 32.2821 30.7157C32.1249 30.7149 31.9695 30.6829 31.8247 30.6215C31.68 30.5602 31.5489 30.4708 31.4389 30.3584L31.2406 30.1613C31.1583 30.0792 31.0534 30.0236 30.9393 30.0016C30.8252 29.9795 30.7071 29.9921 30.6002 30.0376C30.4933 30.0831 30.4024 30.1595 30.3392 30.2569C30.276 30.3544 30.2433 30.4686 30.2454 30.5848C30.2436 30.6637 30.2578 30.7421 30.2873 30.8154C30.3168 30.8886 30.3609 30.955 30.4169 31.0106L30.6771 31.2708C30.7843 31.3717 30.8701 31.4932 30.9295 31.6279C30.989 31.7627 31.0207 31.908 31.0229 32.0552C31.0251 32.2025 30.9978 32.3486 30.9424 32.4851C30.8871 32.6216 30.8049 32.7456 30.7008 32.8497C30.5967 32.9538 30.4727 33.036 30.3362 33.0913C30.1998 33.1466 30.0536 33.174 29.9063 33.1718C29.7591 33.1696 29.6138 33.1378 29.479 33.0784C29.3443 33.019 29.2229 32.9332 29.1219 32.8259H29.1207L29.1067 32.8108L28.8617 32.5658C28.8078 32.5112 28.7436 32.4679 28.6728 32.4383C28.602 32.4087 28.526 32.3935 28.4493 32.3935C28.3726 32.3935 28.2966 32.4087 28.2258 32.4383C28.1551 32.4679 28.0908 32.5112 28.0369 32.5658C27.9275 32.6752 27.8661 32.8235 27.8661 32.9782C27.8661 33.1329 27.9275 33.2812 28.0369 33.3906L28.2912 33.6461C28.396 33.7495 28.4793 33.8726 28.5364 34.0082C28.5936 34.1438 28.6235 34.2893 28.6244 34.4365C28.6254 34.5837 28.5973 34.7296 28.5418 34.8659C28.4863 35.0022 28.4046 35.1263 28.3012 35.231C28.1977 35.3357 28.0747 35.4191 27.9391 35.4762C27.8035 35.5334 27.6579 35.5633 27.5107 35.5642C27.3636 35.5652 27.2177 35.5371 27.0813 35.4816C26.945 35.4261 26.821 35.3444 26.7162 35.2409L25.0467 33.6543L25.6592 33.0453C25.8656 32.8409 26.0293 32.5977 26.1411 32.3297C26.2529 32.0616 26.3104 31.7741 26.3104 31.4837C26.3104 31.1933 26.2529 30.9058 26.1411 30.6377C26.0293 30.3697 25.8656 30.1265 25.6592 29.9221C25.441 29.7053 25.1801 29.5362 24.8932 29.4253C24.6062 29.3145 24.2994 29.2644 23.9921 29.2781C24.0056 28.972 23.9549 28.6664 23.8432 28.3811C23.7314 28.0958 23.5612 27.837 23.3434 27.6214C23.1253 27.4048 22.8647 27.2357 22.5779 27.1248C22.2912 27.014 21.9845 26.9638 21.6774 26.9774C21.6908 26.6715 21.6401 26.3661 21.5283 26.081C21.4166 25.7959 21.2464 25.5373 21.0287 25.3219C20.7514 25.0469 20.4068 24.8495 20.0293 24.7494C19.6517 24.6493 19.2546 24.65 18.8774 24.7514C18.8126 24.2714 18.5906 23.8263 18.2462 23.4856C17.8624 23.1052 17.3537 22.8768 16.8143 22.843C16.275 22.8091 15.7417 22.9719 15.3132 23.3013C15.0377 22.1185 15.0696 20.8849 15.406 19.7179C15.7423 18.551 16.3719 17.4896 17.2347 16.6349Z"
          fill="#B7DDE1"/>
</svg>
